PathFileType	4	(X/Y/Z)	D:\TRACE\v60_Jaco2_6-2-23\JustBodyDRS_Motion3_1-v60.trc
DataRate	CameraRate	NumFrames	NumMarkers	Units	OrigDataRate	OrigDataStartFrame	OrigNumFrames
100.00	100.00	      28	9	mm	100.00	3501	      7000
Frame#	Time	front left toe			Front right toe			aft left toe			aft right toe			Arm			FL body			FR body			AL Body			AR Body			
		X1	Y1	Z1	X2	Y2	Z2	X3	Y3	Z3	X4	Y4	Z4	X5	Y5	Z5	X6	Y6	Z6	X7	Y7	Z7	X8	Y8	Z8	X9	Y9	Z9	

3501	35.000	-145.26463	27.21380	-140.12933	234.02411	19.70263	-141.88934	-118.11913	5.51686	498.73938	261.25256	7.14001	460.75125	58.08002	1213.93604	-132.36002	-34.24743	588.06079	-272.64642	124.52657	586.93109	-278.72098	9.64847	535.05750	670.29218	162.53708	524.24640	662.42975	
3502	35.010	-144.92155	22.59625	-142.51057	234.02939	19.67312	-141.83832	-117.92989	5.97926	498.85626	261.72253	5.72960	460.37155	59.06065	1214.01868	-133.41869	-33.71705	587.46497	-273.59100	124.43620	586.84271	-279.53223	10.09340	536.15686	669.58014	162.57648	525.75317	661.30670	
3503	35.020	-146.19096	21.51262	-141.96658	233.94058	19.69150	-141.68553	-117.75356	6.49947	498.78656	261.61801	6.27640	461.32260	59.52788	1214.00012	-135.25183	-32.99529	587.17010	-274.67340	125.64104	586.38861	-280.83435	10.15941	537.70459	668.43909	162.03966	527.31891	660.38348	
3504	35.030	-146.27455	21.24677	-143.07248	234.01155	20.02884	-142.06662	-118.04197	7.28498	498.49582	261.38281	6.26292	461.62460	59.76023	1214.18665	-138.06894	-32.34225	588.17737	-275.61487	125.85014	587.17761	-281.75967	11.15877	539.10358	667.52960	162.60297	528.24323	659.33527	
3505	35.040	-145.27745	21.83320	-141.05739	233.52440	22.44009	-142.37659	-117.40607	9.31629	497.21402	261.57401	5.92226	461.31192	59.96561	1215.29382	-140.91777	-31.70808	589.67010	-276.86816	126.71691	588.55151	-283.04819	10.75146	539.36078	666.22491	163.06905	528.62524	658.27625	
3506	35.050	-145.21873	22.13433	-142.74406	230.18137	26.42263	-140.28424	-115.54418	12.90262	498.21921	261.76599	5.80515	461.09915	60.52306	1216.45532	-142.49861	-31.43268	591.22937	-278.43439	127.05106	589.61951	-283.97797	11.05846	539.27942	664.73529	163.40932	528.63055	656.88269	
3507	35.060	-145.20799	21.85439	-142.44870	227.56612	33.75289	-139.11740	-111.62433	18.98587	497.88199	261.61545	5.94535	461.07816	61.38222	1217.68933	-142.71497	-30.91577	591.59576	-279.71136	126.88947	590.81641	-285.74698	10.85844	539.51752	663.09772	162.92754	529.17114	655.42749	
3508	35.070	-144.75580	20.72280	-142.42879	226.56932	42.69287	-139.35933	-108.20515	28.18644	496.53323	261.47751	5.94459	460.85672	62.62582	1218.20264	-142.52451	-30.86331	591.82892	-281.39078	127.25492	590.76294	-287.27313	10.78189	540.42841	661.68469	163.62325	529.82202	653.90851	
3509	35.080	-145.12796	20.50996	-142.38719	226.66307	53.70346	-141.35988	-106.78828	39.72161	494.10632	261.47214	5.96417	460.89124	63.86004	1218.34485	-143.03494	-30.90371	591.76093	-282.55020	127.47640	590.15161	-288.18295	11.37670	540.61871	660.37219	163.75589	530.01831	652.50696	
3510	35.090	-145.15788	20.53653	-142.25468	228.36900	65.53834	-144.77153	-107.61626	51.36018	491.13351	261.49930	5.94042	460.81976	64.62865	1218.06201	-144.60440	-31.05838	591.72058	-283.96677	126.82608	590.28564	-290.20682	11.91729	540.29114	658.79449	163.55798	529.67468	651.12396	
3511	35.100	-145.22185	20.37718	-142.42659	229.41431	78.06477	-148.62083	-109.36893	62.91855	487.47983	261.49026	5.65808	460.41013	64.85912	1217.59058	-146.83887	-31.58500	591.66132	-285.28235	126.96096	590.25110	-291.69333	12.36815	539.65619	657.58630	164.29971	528.99072	649.67188	
3512	35.110	-145.31729	20.14842	-142.52034	231.74289	90.50869	-153.31738	-111.65198	75.55273	483.82941	261.62021	5.36363	460.14291	64.83282	1216.85034	-148.75581	-32.00916	591.59467	-286.60968	126.25266	589.89105	-292.45786	13.58738	539.15314	656.40686	164.83614	528.49286	648.22302	
3513	35.120	-145.54900	20.09843	-142.61800	232.90266	102.55633	-158.22328	-112.95736	87.92233	479.79059	261.61676	5.35104	460.00076	63.96461	1216.47266	-150.14484	-32.40443	591.23724	-287.77219	125.92682	589.37067	-294.20352	13.87840	539.17126	655.07367	165.42950	528.18439	646.86450	
3514	35.130	-145.80083	20.08079	-142.64014	233.57092	114.56901	-162.79227	-112.47945	99.55310	475.89804	261.65915	5.54205	459.96906	63.07597	1216.33191	-151.08531	-32.37714	590.90454	-288.90015	125.93828	588.95618	-295.87799	13.96900	539.16931	653.69092	166.02289	528.10498	645.28741	
3515	35.140	-145.91812	20.00670	-142.74928	234.21642	125.75669	-166.68889	-111.09913	110.50255	472.60602	261.59949	5.50428	459.81058	62.60680	1216.47253	-152.18343	-33.06269	590.85468	-290.44452	125.16083	588.77771	-297.13712	14.33382	539.24939	652.20880	166.81477	528.20758	643.80731	
3516	35.150	-145.81902	19.88548	-142.58884	233.72804	135.56137	-170.74625	-110.82962	121.64086	468.51642	261.52640	5.42501	459.60135	62.71854	1216.29919	-153.53175	-32.96344	590.30444	-291.43039	125.49810	588.39600	-298.72440	15.13777	539.36890	650.99542	166.16322	528.34167	642.42780	
3517	35.160	-146.13182	19.90041	-142.86972	234.08327	144.75835	-174.75116	-109.91147	130.30273	464.86862	261.43173	5.44422	459.44937	63.34111	1215.99719	-155.27528	-33.57437	590.47412	-293.14499	124.85175	588.39954	-300.09845	15.14364	539.58691	649.66541	166.67682	528.57056	641.19922	
3518	35.170	-146.24026	19.78929	-142.88455	235.03923	150.87782	-178.16234	-109.30585	135.86552	461.72342	261.36115	5.47687	459.34662	63.56580	1215.70898	-157.21640	-33.91330	590.11243	-293.88541	123.98987	587.99988	-301.24521	15.34839	539.86426	648.41040	167.69617	528.86127	639.83069	
3519	35.180	-146.36162	19.67398	-142.91249	236.38759	154.72983	-181.14066	-109.81792	139.92711	458.74283	261.33838	5.51324	459.31839	63.85372	1215.53174	-159.18614	-34.60048	590.01031	-295.22159	123.43962	588.17041	-302.42407	15.54440	539.99115	647.31378	166.72804	529.17926	638.62933	
3520	35.190	-146.38831	19.59455	-142.91589	237.39713	155.96577	-183.86743	-110.28205	141.30678	456.50241	261.33560	5.54283	459.30038	63.97158	1215.52161	-160.79939	-34.50493	589.75861	-296.00381	123.35477	587.93256	-303.56293	16.20599	540.23578	646.16901	167.66936	529.54218	637.43347	
3521	35.200	-146.39989	19.61780	-142.96089	237.77480	154.17384	-186.12935	-110.38806	139.91898	454.99216	261.31680	5.55358	459.19095	63.51172	1215.58154	-162.11594	-35.11329	589.91431	-297.39603	123.40884	587.87585	-305.01926	16.73389	540.85345	645.20117	167.88507	530.00928	636.05896	
3522	35.210	-146.46895	19.62336	-143.02328	237.75443	150.33499	-188.10434	-110.62137	137.29593	453.55511	261.26062	5.67519	459.01141	62.40383	1215.71460	-163.24411	-35.28495	589.84357	-298.18909	122.61655	587.79565	-305.93069	16.96625	541.66669	643.98584	168.67233	530.50562	634.92822	
3523	35.220	-146.49896	19.65755	-143.07820	237.25902	144.94490	-190.33070	-110.37305	133.48048	451.74570	261.23615	5.72275	458.89481	61.61309	1215.86133	-164.54277	-35.40428	589.74359	-299.26682	122.29076	587.51257	-307.26321	17.13061	542.01660	642.83063	169.02477	530.71454	633.89227	
3524	35.230	-146.54340	19.65102	-143.07472	237.65729	139.27101	-192.39102	-110.38866	128.64546	449.94540	261.23322	5.77443	458.78278	61.64553	1215.94373	-165.79970	-35.60579	589.59222	-300.28842	122.37813	587.60870	-308.41534	17.43798	542.14404	641.98511	168.75731	530.93060	632.85651	
3525	35.240	-146.63124	19.56568	-143.08879	237.35336	132.36821	-194.57512	-110.28846	122.76525	447.85410	261.19830	5.78573	458.70016	61.80201	1215.86377	-167.23027	-36.23262	589.74249	-301.40607	122.42486	587.54510	-309.53052	17.73404	542.26593	640.84937	169.21649	531.20447	631.64142	
3526	35.250	-146.70821	19.57971	-143.09061	237.62885	124.83580	-197.39006	-110.40128	115.59387	445.38797	261.18484	5.40985	458.39685	62.39753	1215.65515	-168.71672	-36.55375	589.71796	-302.23666	122.02522	587.59119	-310.62289	18.20390	542.26166	639.98492	170.28502	531.23535	630.75140	
3527	35.260	-146.75943	19.53265	-143.10387	238.11128	116.63397	-200.68524	-110.36718	107.54888	442.75955	261.22324	5.39619	458.36212	62.88630	1215.36401	-169.86816	-37.03189	589.64514	-303.33298	121.50815	587.47546	-311.65762	18.50006	542.47217	638.75122	170.79947	531.39398	629.62408	
3528	35.270	-146.88557	19.46260	-143.16335	238.07782	108.57091	-203.37479	-110.47449	98.36112	439.86725	261.17691	5.77130	458.43430	63.21992	1215.45081	-170.72350	-37.14967	589.61230	-304.21832	120.94384	587.31317	-312.81543	18.74088	542.44733	637.94336	169.94592	531.22382	628.25238	
